<?xml version="1.0" standalone="no"?>
<!DOCTYPE svg PUBLIC "-//W3C//DTD SVG 1.1//EN" "http://www.w3.org/Graphics/SVG/1.1/DTD/svg11.dtd" >
<svg>
<metadata>
Created by FontForge 20090914 at Fri Sep  2 19:27:55 2022
 By www-data
Pixel Coleco &#194;&#169; (Neale Davidson). 2011-2015. All Rights Reserved
</metadata>
<defs>
<font id="PixelColeco" horiz-adv-x="1200" >
  <font-face 
    font-family="Pixel Coleco"
    font-weight="400"
    font-stretch="normal"
    units-per-em="2048"
    panose-1="2 0 5 0 0 0 0 0 0 0"
    ascent="1638"
    descent="-410"
    x-height="1200"
    cap-height="1400"
    bbox="0 -270.002 2200 2000"
    underline-thickness="150"
    underline-position="-142"
    unicode-range="U+001D-U+F002"
  />
<missing-glyph horiz-adv-x="1650" 
d="M0 200v1100c0 133.333 66.667 200 200 200h1100c133.333 0 200 -66.667 200 -200v-1100c0 -133.333 -66.667 -200 -200 -200h-1100c-133.333 0 -200 66.667 -200 200zM1475 201v1099c0 116.667 -58.333 175 -175 175h-1100c-116 0 -174.333 -58.333 -175 -175v-1100
c0.666992 -116.667 59 -175 175 -175h1101c116 0 174 58.667 174 176z" />
    <glyph glyph-name=".notdef" horiz-adv-x="1650" 
d="M0 200v1100c0 133.333 66.667 200 200 200h1100c133.333 0 200 -66.667 200 -200v-1100c0 -133.333 -66.667 -200 -200 -200h-1100c-133.333 0 -200 66.667 -200 200zM1475 201v1099c0 116.667 -58.333 175 -175 175h-1100c-116 0 -174.333 -58.333 -175 -175v-1100
c0.666992 -116.667 59 -175 175 -175h1101c116 0 174 58.667 174 176z" />
    <glyph glyph-name=".null" horiz-adv-x="0" 
 />
    <glyph glyph-name=".null" horiz-adv-x="0" 
 />
    <glyph glyph-name="space" unicode=" " 
 />
    <glyph glyph-name="space" unicode="&#xa0;" 
 />
    <glyph glyph-name="exclam" unicode="!" 
d="M600 200v-200h-200v200h200zM600 1400v-1000h-200v1000h200z" />
    <glyph glyph-name="quotedbl" unicode="&#x22;" 
d="M600 800v600h200v-600h-200zM200 800v600h200v-600h-200z" />
    <glyph glyph-name="numbersign" unicode="#" 
d="M600 1000v200h200v-200h200v-200h-200v-200h200v-200h-200v-200h-200v200h-200v-200h-200v200h-200v200h200v200h-200v200h200v200h200v-200h200zM600 800h-200v-200h200v200z" />
    <glyph glyph-name="dollar" unicode="$" 
d="M800 425v150l-25 25h-575v175l-25 25h-175v200h175l25 25v175h200v200h200v-200h200v-200h-575l-25 -25v-150l25 -25h575v-175l25 -25h175v-200h-175l-25 -25v-175h-200v-200h-200v200h-200v200h575z" />
    <glyph glyph-name="percent" unicode="%" 
d="M0 1000v400h400v-400h-400zM1000 0h-400v400h400v-400zM600 825v175h175l25 25v375h200v-400h-175l-25 -25v-175h-175l-25 -25v-175h-175l-25 -25v-175h-175l-25 -25v-375h-200v400h175l25 25v175h175l25 25v175h175z" />
    <glyph glyph-name="ampersand" unicode="&#x26;" 
d="M225 600l-25 -25v-350l25 -25h350l25 25v150l-25 25h-175v175l-25 25h-150zM200 775l-25 25h-175v400h175l25 25v175h400v-175l25 -25h175v-200h-175l-25 -25v-175h-175l-25 -25v-150l25 -25h175v-175l25 -25h150l25 25v375h200v-400h-175l-25 -25v-150l25 -25h175v-200
h-200v175l-25 25h-150l-25 -25v-175h-400v175l-25 25h-175v400h175l25 25v150zM200 825l25 -25h150l25 25v175h175l25 25v150l-25 25h-350l-25 -25v-350z" />
    <glyph glyph-name="quotesingle" unicode="'" 
d="M400 800v600h200v-600h-200z" />
    <glyph glyph-name="parenleft" unicode="(" 
d="M400 1225v175h400v-200h-375l-25 -25v-950l25 -25h375v-200h-400v175l-25 25h-175v1000h175z" />
    <glyph glyph-name="parenright" unicode=")" 
d="M625 1200h175v-1000h-175l-25 -25v-175h-400v200h375l25 25v950l-25 25h-375v200h400v-175z" />
    <glyph glyph-name="asterisk" unicode="*" 
d="M400 1400v-175l25 -25h150l25 25v175h200v-200h-175l-25 -25v-150l25 -25h175v-200h-200v175l-25 25h-150l-25 -25v-175h-200v200h175l25 25v150l-25 25h-175v200h200z" />
    <glyph glyph-name="plus" unicode="+" 
d="M600 800h400v-200h-400v-400h-200v400h-400v200h400v400h200v-400z" />
    <glyph glyph-name="comma" unicode="," 
d="M600 175v-175h-200v200h175l25 25v375h200v-400h-175z" />
    <glyph glyph-name="hyphen" unicode="-" 
d="M1000 800v-200h-1000v200h1000z" />
    <glyph glyph-name="hyphen" unicode="&#xad;" 
d="M1000 800v-200h-1000v200h1000z" />
    <glyph glyph-name="period" unicode="." 
d="M600 200v-200h-200v200h200z" />
    <glyph glyph-name="slash" unicode="/" 
d="M600 825v175h175l25 25v375h200v-400h-175l-25 -25v-175h-175l-25 -25v-175h-175l-25 -25v-175h-175l-25 -25v-375h-200v400h175l25 25v175h175l25 25v175h175z" />
    <glyph glyph-name="zero" unicode="0" 
d="M800 175v-175h-600v175l-25 25h-175v1000h175l25 25v175h600v-175l25 -25h175v-1000h-175zM225 200h550l25 25v950l-25 25h-550l-25 -25v-950z" />
    <glyph glyph-name="one" unicode="1" 
d="M400 1200v200h200v-1200h200v-200h-600v200h200v800h-200v200h200z" />
    <glyph glyph-name="two" unicode="2" 
d="M825 1200h175v-200h-175l-25 -25v-175h-175l-25 -25v-175h-175l-25 -25v-175h-175l-25 -25v-175h800v-200h-1000v400h175l25 25v175h175l25 25v175h175l25 25v175h175l25 25v150l-25 25h-550l-25 -25v-175h-200v200h175l25 25v175h600v-175z" />
    <glyph glyph-name="three" unicode="3" 
d="M175 200h-175v200h200v-175l25 -25h550l25 25v350l-25 25h-375v200h200v200h175l25 25v175h-800v200h1000v-400h-175l-25 -25v-350l25 -25h175v-400h-175l-25 -25v-175h-600v175z" />
    <glyph glyph-name="four" unicode="4" 
d="M400 1025v175h200v200h200v-800h200v-200h-200v-400h-200v400h-600v400h175l25 25v175h175zM200 775v-175h400v400h-175l-25 -25v-175h-175z" />
    <glyph glyph-name="five" unicode="5" 
d="M175 200h-175v200h200v-175l25 -25h550l25 25v550l-25 25h-775v600h1000v-200h-800v-200h600v-175l25 -25h175v-600h-175l-25 -25v-175h-600v175z" />
    <glyph glyph-name="six" unicode="6" 
d="M800 175v-175h-600v175l-25 25h-175v800h175l25 25v175h175l25 25v175h600v-200h-575l-25 -25v-175h-175l-25 -25v-175h600v-175l25 -25h175v-400h-175zM225 200h550l25 25v350l-25 25h-575v-375z" />
    <glyph glyph-name="seven" unicode="7" 
d="M800 975v-175h-175l-25 -25v-175h-175l-25 -25v-575h-200v600h175l25 25v175h175l25 25v175h175l25 25v175h-800v200h1000v-400h-175z" />
    <glyph glyph-name="eight" unicode="8" 
d="M800 825v350l-25 25h-550l-25 -25v-350l25 -25h550zM225 200h550l25 25v350l-25 25h-550l-25 -25v-350zM800 175v-175h-600v175l-25 25h-175v400h175l25 25v150l-25 25h-175v400h175l25 25v175h600v-175l25 -25h175v-400h-175l-25 -25v-150l25 -25h175v-400h-175z" />
    <glyph glyph-name="nine" unicode="9" 
d="M200 1225v175h600v-175l25 -25h175v-800h-175l-25 -25v-175h-175l-25 -25v-175h-600v200h575l25 25v175h175l25 25v175h-600v175l-25 25h-175v400h175zM775 1200h-550l-25 -25v-350l25 -25h575v375z" />
    <glyph glyph-name="colon" unicode=":" 
d="M800 400v-200h-200v200h200zM800 1000v-200h-200v200h200z" />
    <glyph glyph-name="semicolon" unicode=";" 
d="M800 1000v-200h-200v200h200zM600 175v-175h-200v200h175l25 25v375h200v-400h-175z" />
    <glyph glyph-name="semicolon" unicode="&#x37e;" 
d="M800 1000v-200h-200v200h200zM600 175v-175h-200v200h175l25 25v375h200v-400h-175z" />
    <glyph glyph-name="less" unicode="&#x3c;" 
d="M800 1175v-175h-175l-25 -25v-175h-175l-25 -25v-150l25 -25h175v-175l25 -25h175v-175l25 -25h175v-200h-200v175l-25 25h-175v175l-25 25h-175v175l-25 25h-175v200h175l25 25v175h175l25 25v175h175l25 25v175h200v-200h-175z" />
    <glyph glyph-name="equal" unicode="=" 
d="M1000 600v-200h-1000v200h1000zM1000 1000v-200h-1000v200h1000z" />
    <glyph glyph-name="greater" unicode="&#x3e;" 
d="M375 1200h-175v200h200v-175l25 -25h175v-175l25 -25h175v-175l25 -25h175v-200h-175l-25 -25v-175h-175l-25 -25v-175h-175l-25 -25v-175h-200v200h175l25 25v175h175l25 25v175h175l25 25v150l-25 25h-175v175l-25 25h-175v175z" />
    <glyph glyph-name="question" unicode="?" 
d="M600 0h-200v200h200v-200zM775 1200h-550l-25 -25v-175h-200v200h175l25 25v175h600v-175l25 -25h175v-400h-175l-25 -25v-175h-175l-25 -25v-175h-200v200h175l25 25v175h175l25 25v350z" />
    <glyph glyph-name="at" unicode="@" horiz-adv-x="1800" 
d="M1000 600v200h-400v-200h400zM225 0h1175v-200h-1200v175l-25 25h-175v1200h175l25 25v175h1200v-175l25 -25h175v-1000h-600v200h-400v-200h-200v800h800v-600h200v775l-25 25h-1150l-25 -25v-1150z" />
    <glyph glyph-name="A" unicode="A" 
d="M825 1000h175v-1000h-200v400h-600v-400h-200v1000h175l25 25v175h175l25 25v175h200v-175l25 -25h175v-175zM200 975v-375h600v375l-25 25h-175v175l-25 25h-150l-25 -25v-175h-175z" />
    <glyph glyph-name="B" unicode="B" 
d="M775 600h-575v-400h575l25 25v350zM800 775v-150l25 -25h175v-400h-175l-25 -25v-175h-800v1400h800v-175l25 -25h175v-400h-175zM775 800l25 25v350l-25 25h-575v-400h575z" />
    <glyph glyph-name="C" unicode="C" 
d="M175 200h-175v1000h175l25 25v175h600v-175l25 -25h175v-200h-200v175l-25 25h-550l-25 -25v-950l25 -25h550l25 25v175h200v-200h-175l-25 -25v-175h-600v175z" />
    <glyph glyph-name="D" unicode="D" 
d="M825 200l-25 -25v-175h-800v1400h800v-175l25 -25h175v-1000h-175zM800 225v950l-25 25h-575v-1000h575z" />
    <glyph glyph-name="E" unicode="E" 
d="M200 1200v-400h600v-200h-600v-400h800v-200h-1000v1400h1000v-200h-800z" />
    <glyph glyph-name="F" unicode="F" 
d="M200 1200v-400h600v-200h-600v-600h-200v1400h1000v-200h-800z" />
    <glyph glyph-name="G" unicode="G" 
d="M200 225l25 -25h575v200h-200v200h400v-600h-800v175l-25 25h-175v1000h175l25 25v175h800v-200h-775l-25 -25v-950z" />
    <glyph glyph-name="H" unicode="H" 
d="M1000 0h-200v600h-600v-600h-200v1400h200v-600h600v600h200v-1400z" />
    <glyph glyph-name="I" unicode="I" 
d="M800 1400v-200h-200v-1000h200v-200h-600v200h200v1000h-200v200h600z" />
    <glyph glyph-name="J" unicode="J" 
d="M800 225v1175h200v-1200h-175l-25 -25v-175h-600v175l-25 25h-175v200h200v-175l25 -25h550z" />
    <glyph glyph-name="K" unicode="K" 
d="M575 400h-175v175l-25 25h-175v-600h-200v1400h200v-600h175l25 25v175h175l25 25v175h175l25 25v175h200v-200h-175l-25 -25v-175h-175l-25 -25v-175h-175l-25 -25v-150l25 -25h175v-175l25 -25h175v-175l25 -25h175v-200h-200v175l-25 25h-175v175z" />
    <glyph glyph-name="L" unicode="L" 
d="M200 1400v-1200h800v-200h-1000v1400h200z" />
    <glyph glyph-name="M" unicode="M" 
d="M600 1025v175h200v200h200v-1400h-200v1000h-175l-25 -25v-375h-200v375l-25 25h-175v-1000h-200v1400h200v-200h200v-175l25 -25h150z" />
    <glyph glyph-name="N" unicode="N" 
d="M625 600h175v800h200v-1400h-200v400h-200v175l-25 25h-175v175l-25 25h-175v-800h-200v1400h200v-400h200v-175l25 -25h175v-175z" />
    <glyph glyph-name="O" unicode="O" 
d="M800 175v-175h-600v175l-25 25h-175v1000h175l25 25v175h600v-175l25 -25h175v-1000h-175zM225 200h550l25 25v950l-25 25h-550l-25 -25v-950z" />
    <glyph glyph-name="P" unicode="P" 
d="M800 775v-175h-600v-600h-200v1400h800v-175l25 -25h175v-400h-175zM775 1200h-575v-400h575l25 25v350z" />
    <glyph glyph-name="Q" unicode="Q" 
d="M800 425v750l-25 25h-550l-25 -25v-950l25 -25h350l25 25v150l-25 25h-175v200h200v-175l25 -25h150zM825 1200h175v-800h-175l-25 -25v-150l25 -25h175v-200h-200v175l-25 25h-150l-25 -25v-175h-400v175l-25 25h-175v1000h175l25 25v175h600v-175z" />
    <glyph glyph-name="R" unicode="R" 
d="M825 1200h175v-400h-175l-25 -25v-175h-200v-175l25 -25h175v-175l25 -25h175v-200h-200v175l-25 25h-175v175l-25 25h-175v200h-200v-600h-200v1400h800v-175zM800 825v350l-25 25h-575v-400h575z" />
    <glyph glyph-name="S" unicode="S" 
d="M825 1200h175v-200h-200v175l-25 25h-550l-25 -25v-350l25 -25h575v-175l25 -25h175v-400h-175l-25 -25v-175h-600v175l-25 25h-175v200h200v-175l25 -25h550l25 25v350l-25 25h-575v175l-25 25h-175v400h175l25 25v175h600v-175z" />
    <glyph glyph-name="T" unicode="T" 
d="M1000 1400v-200h-400v-1200h-200v1200h-400v200h1000z" />
    <glyph glyph-name="U" unicode="U" 
d="M800 225v1175h200v-1200h-175l-25 -25v-175h-600v175l-25 25h-175v1200h200v-1175l25 -25h550z" />
    <glyph glyph-name="V" unicode="V" 
d="M175 400h-175v1000h200v-975l25 -25h175v-175l25 -25h150l25 25v175h175l25 25v975h200v-1000h-175l-25 -25v-175h-175l-25 -25v-175h-200v175l-25 25h-175v175z" />
    <glyph glyph-name="W" unicode="W" 
d="M625 400h175v1000h200v-1400h-200v200h-200v175l-25 25h-150l-25 -25v-175h-200v-200h-200v1400h200v-1000h175l25 25v375h200v-375z" />
    <glyph glyph-name="X" unicode="X" 
d="M175 1000h-175v400h200v-375l25 -25h175v-175l25 -25h150l25 25v175h175l25 25v375h200v-400h-175l-25 -25v-175h-175l-25 -25v-150l25 -25h175v-175l25 -25h175v-400h-200v375l-25 25h-175v175l-25 25h-150l-25 -25v-175h-175l-25 -25v-375h-200v400h175l25 25v175h175
l25 25v150l-25 25h-175v175z" />
    <glyph glyph-name="Y" unicode="Y" 
d="M175 1000h-175v400h200v-375l25 -25h175v-175l25 -25h150l25 25v175h175l25 25v375h200v-400h-175l-25 -25v-175h-175l-25 -25v-775h-200v775l-25 25h-175v175z" />
    <glyph glyph-name="Z" unicode="Z" 
d="M800 1025v175h-800v200h1000v-400h-175l-25 -25v-175h-175l-25 -25v-175h-175l-25 -25v-175h-175l-25 -25v-175h800v-200h-1000v400h175l25 25v175h175l25 25v175h175l25 25v175h175z" />
    <glyph glyph-name="bracketleft" unicode="[" 
d="M400 1200v-1000h400v-200h-600v1400h600v-200h-400z" />
    <glyph glyph-name="backslash" unicode="\" 
d="M425 800h175v-175l25 -25h175v-175l25 -25h175v-400h-200v375l-25 25h-175v175l-25 25h-175v175l-25 25h-175v175l-25 25h-175v400h200v-375l25 -25h175v-175z" />
    <glyph glyph-name="bracketright" unicode="]" 
d="M200 1200v200h600v-1400h-600v200h400v1000h-400z" />
    <glyph glyph-name="asciicircum" unicode="^" 
d="M400 1825v175h200v-175l25 -25h175v-200h-200v175l-25 25h-150l-25 -25v-175h-200v200h175z" />
    <glyph glyph-name="underscore" unicode="_" 
d="M0 0h1200v-200h-1200v200z" />
    <glyph glyph-name="grave" unicode="`" 
d="M625 1800h175v-200h-200v175l-25 25h-375v200h400v-175z" />
    <glyph glyph-name="a" unicode="a" 
d="M825 800h175v-800h-200v400h-600v-400h-200v800h175l25 25v175h175l25 25v175h200v-175l25 -25h175v-175zM200 775v-175h600v175l-25 25h-175v175l-25 25h-150l-25 -25v-175h-175z" />
    <glyph glyph-name="b" unicode="b" 
d="M775 600h-575v-400h575l25 25v350zM800 775v-150l25 -25h175v-400h-175l-25 -25v-175h-800v1200h800v-175l25 -25h175v-200h-175zM775 800l25 25v150l-25 25h-575v-200h575z" />
    <glyph glyph-name="c" unicode="c" 
d="M175 200h-175v800h175l25 25v175h600v-175l25 -25h175v-200h-200v175l-25 25h-550l-25 -25v-750l25 -25h550l25 25v175h200v-200h-175l-25 -25v-175h-600v175z" />
    <glyph glyph-name="d" unicode="d" 
d="M825 200l-25 -25v-175h-800v1200h800v-175l25 -25h175v-800h-175zM800 225v750l-25 25h-575v-800h575z" />
    <glyph glyph-name="e" unicode="e" 
d="M200 1000v-200h600v-200h-600v-400h800v-200h-1000v1200h1000v-200h-800z" />
    <glyph glyph-name="f" unicode="f" 
d="M200 1000v-200h600v-200h-600v-600h-200v1200h1000v-200h-800z" />
    <glyph glyph-name="g" unicode="g" 
d="M200 225l25 -25h575v200h-200v200h400v-600h-800v175l-25 25h-175v800h175l25 25v175h800v-200h-775l-25 -25v-750z" />
    <glyph glyph-name="h" unicode="h" 
d="M1000 0h-200v600h-600v-600h-200v1200h200v-400h600v400h200v-1200z" />
    <glyph glyph-name="i" unicode="i" 
d="M800 1200v-200h-200v-800h200v-200h-600v200h200v800h-200v200h600z" />
    <glyph glyph-name="j" unicode="j" 
d="M800 225v975h200v-1000h-175l-25 -25v-175h-600v175l-25 25h-175v200h200v-175l25 -25h550z" />
    <glyph glyph-name="k" unicode="k" 
d="M600 1025v175h200v-200h-175l-25 -25v-175h-175l-25 -25v-150l25 -25h175v-175l25 -25h175v-175l25 -25h175v-200h-200v175l-25 25h-175v175l-25 25h-175v175l-25 25h-175v-600h-200v1200h200v-400h175l25 25v175h175z" />
    <glyph glyph-name="l" unicode="l" 
d="M200 1200v-1000h800v-200h-1000v1200h200z" />
    <glyph glyph-name="m" unicode="m" 
d="M600 825v175h200v200h200v-1200h-200v800h-175l-25 -25v-375h-200v375l-25 25h-175v-800h-200v1200h200v-200h200v-175l25 -25h150z" />
    <glyph glyph-name="n" unicode="n" 
d="M625 600h175v600h200v-1200h-200v400h-200v175l-25 25h-175v175l-25 25h-175v-800h-200v1200h200v-200h200v-175l25 -25h175v-175z" />
    <glyph glyph-name="o" unicode="o" 
d="M800 175v-175h-600v175l-25 25h-175v800h175l25 25v175h600v-175l25 -25h175v-800h-175zM225 200h550l25 25v750l-25 25h-550l-25 -25v-750z" />
    <glyph glyph-name="p" unicode="p" 
d="M800 775v-175h-600v-600h-200v1200h800v-175l25 -25h175v-200h-175zM775 1000h-575v-200h575l25 25v150z" />
    <glyph glyph-name="q" unicode="q" 
d="M800 425v550l-25 25h-550l-25 -25v-750l25 -25h350l25 25v150l-25 25h-175v200h200v-175l25 -25h150zM825 1000h175v-600h-175l-25 -25v-150l25 -25h175v-200h-200v175l-25 25h-150l-25 -25v-175h-400v175l-25 25h-175v800h175l25 25v175h600v-175z" />
    <glyph glyph-name="r" unicode="r" 
d="M825 1000h175v-200h-175l-25 -25v-175h-200v-175l25 -25h175v-175l25 -25h175v-200h-200v175l-25 25h-175v175l-25 25h-175v200h-200v-600h-200v1200h800v-175zM800 825v150l-25 25h-575v-200h575z" />
    <glyph glyph-name="s" unicode="s" 
d="M225 1000l-25 -25v-150l25 -25h575v-175l25 -25h175v-400h-175l-25 -25v-175h-600v175l-25 25h-175v200h200v-175l25 -25h550l25 25v350l-25 25h-575v175l-25 25h-175v200h175l25 25v175h600v-200h-575z" />
    <glyph glyph-name="t" unicode="t" 
d="M1000 1200v-200h-400v-1000h-200v1000h-400v200h1000z" />
    <glyph glyph-name="u" unicode="u" 
d="M800 225v975h200v-1000h-175l-25 -25v-175h-600v175l-25 25h-175v1000h200v-975l25 -25h550z" />
    <glyph glyph-name="v" unicode="v" 
d="M175 400h-175v800h200v-775l25 -25h175v-175l25 -25h150l25 25v175h175l25 25v775h200v-800h-175l-25 -25v-175h-175l-25 -25v-175h-200v175l-25 25h-175v175z" />
    <glyph glyph-name="w" unicode="w" 
d="M625 400h175v800h200v-1200h-200v200h-200v175l-25 25h-150l-25 -25v-175h-200v-200h-200v1200h200v-800h175l25 25v375h200v-375z" />
    <glyph glyph-name="x" unicode="x" 
d="M175 1000h-175v200h200v-175l25 -25h175v-175l25 -25h150l25 25v175h175l25 25v175h200v-200h-175l-25 -25v-175h-175l-25 -25v-150l25 -25h175v-175l25 -25h175v-400h-200v375l-25 25h-175v175l-25 25h-150l-25 -25v-175h-175l-25 -25v-375h-200v400h175l25 25v175h175
l25 25v150l-25 25h-175v175z" />
    <glyph glyph-name="y" unicode="y" 
d="M175 800h-175v400h200v-375l25 -25h175v-175l25 -25h150l25 25v175h175l25 25v375h200v-400h-175l-25 -25v-175h-175l-25 -25v-575h-200v575l-25 25h-175v175z" />
    <glyph glyph-name="z" unicode="z" 
d="M600 1000h-600v200h1000v-200h-200v-200h-175l-25 -25v-175h-175l-25 -25v-175h-175l-25 -25v-175h800v-200h-1000v400h175l25 25v175h175l25 25v175h175l25 25v175z" />
    <glyph glyph-name="braceleft" unicode="{" 
d="M200 825v375h175l25 25v175h400v-200h-375l-25 -25v-375h-175l-25 -25v-150l25 -25h175v-375l25 -25h375v-200h-400v175l-25 25h-175v375l-25 25h-175v200h175z" />
    <glyph glyph-name="bar" unicode="|" 
d="M600 1600v-1800h-200v1800h200z" />
    <glyph glyph-name="braceright" unicode="}" 
d="M625 800h175v-200h-175l-25 -25v-375h-175l-25 -25v-175h-400v200h375l25 25v375h175l25 25v150l-25 25h-175v375l-25 25h-375v200h400v-175l25 -25h175v-375z" />
    <glyph glyph-name="asciitilde" unicode="~" 
d="M575 1800l25 25v175h200v-200h-175l-25 -25v-175h-200v175l-25 25h-150l-25 -25v-175h-200v200h175l25 25v175h200v-175l25 -25h150z" />
    <glyph glyph-name="exclamdown" unicode="&#xa1;" 
d="M400 1200v200h200v-200h-200zM400 0v1000h200v-1000h-200z" />
    <glyph glyph-name="cent" unicode="&#xa2;" 
d="M825 1000h175v-200h-200v175l-25 25h-550l-25 -25v-550l25 -25h550l25 25v175h200v-200h-175l-25 -25v-175h-200v-200h-200v200h-200v175l-25 25h-175v600h175l25 25v175h200v200h200v-200h200v-175z" />
    <glyph glyph-name="sterling" unicode="&#xa3;" 
d="M400 600v-375l25 -25h625v-200h-1050v200h200v400h-200v200h200v400h175l25 25v175h400v-175l25 -25h175v-200h-200v175l-25 25h-350l-25 -25v-375h200v-200h-200z" />
    <glyph glyph-name="currency" unicode="&#xa4;" 
d="M175 1000h-175v200h200v-175l25 -25h550l25 25v175h200v-200h-175l-25 -25v-550l25 -25h175v-200h-200v175l-25 25h-550l-25 -25v-175h-200v200h175l25 25v550zM600 800h-200v-200h200v200z" />
    <glyph glyph-name="yen" unicode="&#xa5;" 
d="M175 1000h-175v400h200v-375l25 -25h175v-175l25 -25h150l25 25v175h175l25 25v375h200v-400h-175l-25 -25v-175h-175l-25 -25v-175h200v-200h-200v-400h-200v400h-200v200h200v175l-25 25h-175v175z" />
    <glyph glyph-name="brokenbar" unicode="&#xa6;" 
d="M400 800v800h200v-800h-200zM600 600v-800h-200v800h200z" />
    <glyph glyph-name="section" unicode="&#xa7;" horiz-adv-x="1650" 
d="M0 200v1100c0 133.333 66.667 200 200 200h1100c133.333 0 200 -66.667 200 -200v-1100c0 -133.333 -66.667 -200 -200 -200h-1100c-133.333 0 -200 66.667 -200 200zM1475 201v1099c0 116.667 -58.333 175 -175 175h-1100c-116 0 -174.333 -58.333 -175 -175v-1100
c0.666992 -116.667 59 -175 175 -175h1101c116 0 174 58.667 174 176z" />
    <glyph glyph-name="dieresis" unicode="&#xa8;" 
d="M800 1600h-200v200h200v-200zM400 1600h-200v200h200v-200z" />
    <glyph glyph-name="copyright" unicode="&#xa9;" horiz-adv-x="1800" 
d="M1200 850h-600v-450h600v-200h-800v850h800v-200zM1375 0l25 25v1150l-25 25h-1150l-25 -25v-1150l25 -25h1150zM1400 -25v-175h-1200v175l-25 25h-175v1200h175l25 25v175h1200v-175l25 -25h175v-1200h-175z" />
    <glyph glyph-name="ordfeminine" unicode="&#xaa;" horiz-adv-x="1650" 
d="M0 200v1100c0 133.333 66.667 200 200 200h1100c133.333 0 200 -66.667 200 -200v-1100c0 -133.333 -66.667 -200 -200 -200h-1100c-133.333 0 -200 66.667 -200 200zM1475 201v1099c0 116.667 -58.333 175 -175 175h-1100c-116 0 -174.333 -58.333 -175 -175v-1100
c0.666992 -116.667 59 -175 175 -175h1101c116 0 174 58.667 174 176z" />
    <glyph glyph-name="guillemotleft" unicode="&#xab;" horiz-adv-x="1650" 
d="M0 200v1100c0 133.333 66.667 200 200 200h1100c133.333 0 200 -66.667 200 -200v-1100c0 -133.333 -66.667 -200 -200 -200h-1100c-133.333 0 -200 66.667 -200 200zM1475 201v1099c0 116.667 -58.333 175 -175 175h-1100c-116 0 -174.333 -58.333 -175 -175v-1100
c0.666992 -116.667 59 -175 175 -175h1101c116 0 174 58.667 174 176z" />
    <glyph glyph-name="logicalnot" unicode="&#xac;" horiz-adv-x="1650" 
d="M0 200v1100c0 133.333 66.667 200 200 200h1100c133.333 0 200 -66.667 200 -200v-1100c0 -133.333 -66.667 -200 -200 -200h-1100c-133.333 0 -200 66.667 -200 200zM1475 201v1099c0 116.667 -58.333 175 -175 175h-1100c-116 0 -174.333 -58.333 -175 -175v-1100
c0.666992 -116.667 59 -175 175 -175h1101c116 0 174 58.667 174 176z" />
    <glyph glyph-name="registered" unicode="&#xae;" horiz-adv-x="1800" 
d="M1375 0l25 25v1150l-25 25h-1150l-25 -25v-1150l25 -25h1150zM1400 -25v-175h-1200v175l-25 25h-175v1200h175l25 25v175h1200v-175l25 -25h175v-1200h-175zM1000 625v175h-400v-200h375zM1025 400h175v-200h-200v175l-25 25h-375v-200h-200v800h800v-400h-175l-25 -25
v-150z" />
    <glyph glyph-name="macron" unicode="&#xaf;" 
d="M0 1600h1200v-200h-1200v200z" />
    <glyph glyph-name="degree" unicode="&#xb0;" horiz-adv-x="1650" 
d="M0 200v1100c0 133.333 66.667 200 200 200h1100c133.333 0 200 -66.667 200 -200v-1100c0 -133.333 -66.667 -200 -200 -200h-1100c-133.333 0 -200 66.667 -200 200zM1475 201v1099c0 116.667 -58.333 175 -175 175h-1100c-116 0 -174.333 -58.333 -175 -175v-1100
c0.666992 -116.667 59 -175 175 -175h1101c116 0 174 58.667 174 176z" />
    <glyph glyph-name="plusminus" unicode="&#xb1;" 
d="M600 1000h400v-200h-400v-400h-200v400h-400v200h400v400h200v-400zM0 0v200h1000v-200h-1000z" />
    <glyph glyph-name="uni00B2" unicode="&#xb2;" horiz-adv-x="1650" 
d="M0 200v1100c0 133.333 66.667 200 200 200h1100c133.333 0 200 -66.667 200 -200v-1100c0 -133.333 -66.667 -200 -200 -200h-1100c-133.333 0 -200 66.667 -200 200zM1475 201v1099c0 116.667 -58.333 175 -175 175h-1100c-116 0 -174.333 -58.333 -175 -175v-1100
c0.666992 -116.667 59 -175 175 -175h1101c116 0 174 58.667 174 176z" />
    <glyph glyph-name="uni00B3" unicode="&#xb3;" horiz-adv-x="1650" 
d="M0 200v1100c0 133.333 66.667 200 200 200h1100c133.333 0 200 -66.667 200 -200v-1100c0 -133.333 -66.667 -200 -200 -200h-1100c-133.333 0 -200 66.667 -200 200zM1475 201v1099c0 116.667 -58.333 175 -175 175h-1100c-116 0 -174.333 -58.333 -175 -175v-1100
c0.666992 -116.667 59 -175 175 -175h1101c116 0 174 58.667 174 176z" />
    <glyph glyph-name="acute" unicode="&#xb4;" 
d="M400 1825v175h400v-200h-375l-25 -25v-175h-200v200h175z" />
    <glyph glyph-name="mu" unicode="&#xb5;" 
d="M800 225v1175h200v-1200h-175l-25 -25v-175h-600v-200h-200v1600h200v-1200h575z" />
    <glyph glyph-name="paragraph" unicode="&#xb6;" horiz-adv-x="1024" 
d="M929 1435l-0.000976562 -70h-127v-1365h-82v1365h-166v-1365h-84v738c-116 5.33301 -207.833 39.5 -275.5 102.5s-101.5 144.833 -101.5 245.5c0 104.667 35.833 189 107.5 253s166.834 96 285.501 96h443z" />
    <glyph glyph-name="periodcentered" unicode="&#xb7;" 
d="M800 1000v-200h-200v200h200z" />
    <glyph glyph-name="periodcentered" unicode="&#x2219;" 
d="M800 1000v-200h-200v200h200z" />
    <glyph glyph-name="cedilla" unicode="&#xb8;" 
d="M200 0h200v200h200v-400h-400v200z" />
    <glyph glyph-name="uni00B9" unicode="&#xb9;" horiz-adv-x="1650" 
d="M0 200v1100c0 133.333 66.667 200 200 200h1100c133.333 0 200 -66.667 200 -200v-1100c0 -133.333 -66.667 -200 -200 -200h-1100c-133.333 0 -200 66.667 -200 200zM1475 201v1099c0 116.667 -58.333 175 -175 175h-1100c-116 0 -174.333 -58.333 -175 -175v-1100
c0.666992 -116.667 59 -175 175 -175h1101c116 0 174 58.667 174 176z" />
    <glyph glyph-name="ordmasculine" unicode="&#xba;" horiz-adv-x="1650" 
d="M0 200v1100c0 133.333 66.667 200 200 200h1100c133.333 0 200 -66.667 200 -200v-1100c0 -133.333 -66.667 -200 -200 -200h-1100c-133.333 0 -200 66.667 -200 200zM1475 201v1099c0 116.667 -58.333 175 -175 175h-1100c-116 0 -174.333 -58.333 -175 -175v-1100
c0.666992 -116.667 59 -175 175 -175h1101c116 0 174 58.667 174 176z" />
    <glyph glyph-name="guillemotright" unicode="&#xbb;" horiz-adv-x="1650" 
d="M0 200v1100c0 133.333 66.667 200 200 200h1100c133.333 0 200 -66.667 200 -200v-1100c0 -133.333 -66.667 -200 -200 -200h-1100c-133.333 0 -200 66.667 -200 200zM1475 201v1099c0 116.667 -58.333 175 -175 175h-1100c-116 0 -174.333 -58.333 -175 -175v-1100
c0.666992 -116.667 59 -175 175 -175h1101c116 0 174 58.667 174 176z" />
    <glyph glyph-name="onequarter" unicode="&#xbc;" horiz-adv-x="1650" 
d="M0 200v1100c0 133.333 66.667 200 200 200h1100c133.333 0 200 -66.667 200 -200v-1100c0 -133.333 -66.667 -200 -200 -200h-1100c-133.333 0 -200 66.667 -200 200zM1475 201v1099c0 116.667 -58.333 175 -175 175h-1100c-116 0 -174.333 -58.333 -175 -175v-1100
c0.666992 -116.667 59 -175 175 -175h1101c116 0 174 58.667 174 176z" />
    <glyph glyph-name="onehalf" unicode="&#xbd;" horiz-adv-x="1650" 
d="M0 200v1100c0 133.333 66.667 200 200 200h1100c133.333 0 200 -66.667 200 -200v-1100c0 -133.333 -66.667 -200 -200 -200h-1100c-133.333 0 -200 66.667 -200 200zM1475 201v1099c0 116.667 -58.333 175 -175 175h-1100c-116 0 -174.333 -58.333 -175 -175v-1100
c0.666992 -116.667 59 -175 175 -175h1101c116 0 174 58.667 174 176z" />
    <glyph glyph-name="threequarters" unicode="&#xbe;" horiz-adv-x="1650" 
d="M0 200v1100c0 133.333 66.667 200 200 200h1100c133.333 0 200 -66.667 200 -200v-1100c0 -133.333 -66.667 -200 -200 -200h-1100c-133.333 0 -200 66.667 -200 200zM1475 201v1099c0 116.667 -58.333 175 -175 175h-1100c-116 0 -174.333 -58.333 -175 -175v-1100
c0.666992 -116.667 59 -175 175 -175h1101c116 0 174 58.667 174 176z" />
    <glyph glyph-name="questiondown" unicode="&#xbf;" 
d="M400 1400h200v-200h-200v200zM225 200h550l25 25v175h200v-200h-175l-25 -25v-175h-600v175l-25 25h-175v400h175l25 25v175h175l25 25v175h200v-200h-175l-25 -25v-175h-175l-25 -25v-350z" />
    <glyph glyph-name="Agrave" unicode="&#xc0;" 
d="M825 1000h175v-1000h-200v400h-600v-400h-200v1000h175l25 25v175h175l25 25v175h200v-175l25 -25h175v-175zM200 975v-375h600v375l-25 25h-175v175l-25 25h-150l-25 -25v-175h-175zM625 1800h175v-200h-200v175l-25 25h-375v200h400v-175z" />
    <glyph glyph-name="Aacute" unicode="&#xc1;" 
d="M825 1000h175v-1000h-200v400h-600v-400h-200v1000h175l25 25v175h175l25 25v175h200v-175l25 -25h175v-175zM200 975v-375h600v375l-25 25h-175v175l-25 25h-150l-25 -25v-175h-175zM400 1825v175h400v-200h-375l-25 -25v-175h-200v200h175z" />
    <glyph glyph-name="Acircumflex" unicode="&#xc2;" 
d="M825 1000h175v-1000h-200v400h-600v-400h-200v1000h175l25 25v175h175l25 25v175h200v-175l25 -25h175v-175zM200 975v-375h600v375l-25 25h-175v175l-25 25h-150l-25 -25v-175h-175zM400 1825v175h200v-175l25 -25h175v-200h-200v175l-25 25h-150l-25 -25v-175h-200v200
h175z" />
    <glyph glyph-name="Atilde" unicode="&#xc3;" 
d="M200 1025v175h175l25 25v175h200v-175l25 -25h175v-175l25 -25h175v-1000h-200v400h-600v-400h-200v1000h175zM775 1000h-175v175l-25 25h-150l-25 -25v-175h-175l-25 -25v-375h600v375zM575 1800l25 25v175h200v-200h-175l-25 -25v-175h-200v175l-25 25h-150l-25 -25
v-175h-200v200h175l25 25v175h200v-175l25 -25h150z" />
    <glyph glyph-name="Adieresis" unicode="&#xc4;" 
d="M825 1000h175v-1000h-200v400h-600v-400h-200v1000h175l25 25v175h175l25 25v175h200v-175l25 -25h175v-175zM200 975v-375h600v375l-25 25h-175v175l-25 25h-150l-25 -25v-175h-175zM800 1600h-200v200h200v-200zM400 1600h-200v200h200v-200z" />
    <glyph glyph-name="Aring" unicode="&#xc5;" 
d="M825 1000h175v-1000h-200v400h-600v-400h-200v1000h175l25 25v175h175l25 25v175h200v-175l25 -25h175v-175zM200 975v-375h600v375l-25 25h-175v175l-25 25h-150l-25 -25v-175h-175zM600 1600h-200v200h200v-200z" />
    <glyph glyph-name="AE" unicode="&#xc6;" horiz-adv-x="2000" 
d="M200 975v-375h600v400h-200v175l-25 25h-150l-25 -25v-175h-175zM800 400h-600v-400h-200v1000h175l25 25v175h175l25 25v175h200v-175l25 -25h175v200h1000v-200h-800v-400h600v-200h-600v-400h800v-200h-1000v400z" />
    <glyph glyph-name="Ccedilla" unicode="&#xc7;" 
d="M200 175l-25 25h-175v1000h175l25 25v175h600v-175l25 -25h175v-200h-200v175l-25 25h-550l-25 -25v-950l25 -25h550l25 25v175h200v-200h-175l-25 -25v-175h-200v-200h-400v375z" />
    <glyph glyph-name="Egrave" unicode="&#xc8;" 
d="M200 1200v-400h600v-200h-600v-400h800v-200h-1000v1400h1000v-200h-800zM625 1800h175v-200h-200v175l-25 25h-375v200h400v-175z" />
    <glyph glyph-name="Eacute" unicode="&#xc9;" 
d="M200 1200v-400h600v-200h-600v-400h800v-200h-1000v1400h1000v-200h-800zM400 1825v175h400v-200h-375l-25 -25v-175h-200v200h175z" />
    <glyph glyph-name="Ecircumflex" unicode="&#xca;" 
d="M200 1200v-400h600v-200h-600v-400h800v-200h-1000v1400h1000v-200h-800zM400 1825v175h200v-175l25 -25h175v-200h-200v175l-25 25h-150l-25 -25v-175h-200v200h175z" />
    <glyph glyph-name="Edieresis" unicode="&#xcb;" 
d="M200 1200v-400h600v-200h-600v-400h800v-200h-1000v1400h1000v-200h-800zM800 1600h-200v200h200v-200zM400 1600h-200v200h200v-200z" />
    <glyph glyph-name="Igrave" unicode="&#xcc;" 
d="M800 1400v-200h-200v-1000h200v-200h-600v200h200v1000h-200v200h600zM625 1800h175v-200h-200v175l-25 25h-375v200h400v-175z" />
    <glyph glyph-name="Iacute" unicode="&#xcd;" 
d="M800 1400v-200h-200v-1000h200v-200h-600v200h200v1000h-200v200h600zM400 1825v175h400v-200h-375l-25 -25v-175h-200v200h175z" />
    <glyph glyph-name="Icircumflex" unicode="&#xce;" 
d="M800 1400v-200h-200v-1000h200v-200h-600v200h200v1000h-200v200h600zM400 1825v175h200v-175l25 -25h175v-200h-200v175l-25 25h-150l-25 -25v-175h-200v200h175z" />
    <glyph glyph-name="Idieresis" unicode="&#xcf;" 
d="M800 1400v-200h-200v-1000h200v-200h-600v200h200v1000h-200v200h600zM800 1600h-200v200h200v-200zM400 1600h-200v200h200v-200z" />
    <glyph glyph-name="Eth" unicode="&#xd0;" 
d="M400 600v-400h375l25 25v950l-25 25h-375v-400h200v-200h-200zM200 800v600h600v-175l25 -25h175v-1000h-175l-25 -25v-175h-600v600h-200v200h200z" />
    <glyph glyph-name="Ntilde" unicode="&#xd1;" 
d="M625 600h175v800h200v-1400h-200v400h-200v175l-25 25h-175v175l-25 25h-175v-800h-200v1400h200v-400h200v-175l25 -25h175v-175zM575 1800l25 25v175h200v-200h-175l-25 -25v-175h-200v175l-25 25h-150l-25 -25v-175h-200v200h175l25 25v175h200v-175l25 -25h150z" />
    <glyph glyph-name="Ograve" unicode="&#xd2;" 
d="M800 175v-175h-600v175l-25 25h-175v1000h175l25 25v175h600v-175l25 -25h175v-1000h-175zM225 200h550l25 25v950l-25 25h-550l-25 -25v-950zM625 1800h175v-200h-200v175l-25 25h-375v200h400v-175z" />
    <glyph glyph-name="Oacute" unicode="&#xd3;" 
d="M800 175v-175h-600v175l-25 25h-175v1000h175l25 25v175h600v-175l25 -25h175v-1000h-175zM225 200h550l25 25v950l-25 25h-550l-25 -25v-950zM400 1825v175h400v-200h-375l-25 -25v-175h-200v200h175z" />
    <glyph glyph-name="Ocircumflex" unicode="&#xd4;" 
d="M800 175v-175h-600v175l-25 25h-175v1000h175l25 25v175h600v-175l25 -25h175v-1000h-175zM225 200h550l25 25v950l-25 25h-550l-25 -25v-950zM400 1825v175h200v-175l25 -25h175v-200h-200v175l-25 25h-150l-25 -25v-175h-200v200h175z" />
    <glyph glyph-name="Otilde" unicode="&#xd5;" 
d="M800 175v-175h-600v175l-25 25h-175v1000h175l25 25v175h600v-175l25 -25h175v-1000h-175zM225 200h550l25 25v950l-25 25h-550l-25 -25v-950zM575 1800l25 25v175h200v-200h-175l-25 -25v-175h-200v175l-25 25h-150l-25 -25v-175h-200v200h175l25 25v175h200v-175
l25 -25h150z" />
    <glyph glyph-name="Odieresis" unicode="&#xd6;" 
d="M800 175v-175h-600v175l-25 25h-175v1000h175l25 25v175h600v-175l25 -25h175v-1000h-175zM225 200h550l25 25v950l-25 25h-550l-25 -25v-950zM800 1600h-200v200h200v-200zM400 1600h-200v200h200v-200z" />
    <glyph glyph-name="multiply" unicode="&#xd7;" 
d="M175 1000h-175v200h200v-175l25 -25h175v-175l25 -25h150l25 25v175h175l25 25v175h200v-200h-175l-25 -25v-175h-175l-25 -25v-150l25 -25h175v-175l25 -25h175v-200h-200v175l-25 25h-175v175l-25 25h-150l-25 -25v-175h-175l-25 -25v-175h-200v200h175l25 25v175h175
l25 25v150l-25 25h-175v175z" />
    <glyph glyph-name="Oslash" unicode="&#xd8;" 
d="M625 800l-25 -25v-175h-175l-25 -25v-175h-200v-175l25 -25h550l25 25v575h-175zM800 1000v175l-25 25h-550l-25 -25v-575h175l25 25v175h175l25 25v175h200zM800 175v-175h-600v175l-25 25h-175v1000h175l25 25v175h600v-175l25 -25h175v-1000h-175z" />
    <glyph glyph-name="Ugrave" unicode="&#xd9;" 
d="M800 225v1175h200v-1200h-175l-25 -25v-175h-600v175l-25 25h-175v1200h200v-1175l25 -25h550zM625 1800h175v-200h-200v175l-25 25h-375v200h400v-175z" />
    <glyph glyph-name="Uacute" unicode="&#xda;" 
d="M800 225v1175h200v-1200h-175l-25 -25v-175h-600v175l-25 25h-175v1200h200v-1175l25 -25h550zM400 1825v175h400v-200h-375l-25 -25v-175h-200v200h175z" />
    <glyph glyph-name="Ucircumflex" unicode="&#xdb;" 
d="M800 225v1175h200v-1200h-175l-25 -25v-175h-600v175l-25 25h-175v1200h200v-1175l25 -25h550zM400 1825v175h200v-175l25 -25h175v-200h-200v175l-25 25h-150l-25 -25v-175h-200v200h175z" />
    <glyph glyph-name="Udieresis" unicode="&#xdc;" 
d="M800 225v1175h200v-1200h-175l-25 -25v-175h-600v175l-25 25h-175v1200h200v-1175l25 -25h550zM800 1600h-200v200h200v-200zM400 1600h-200v200h200v-200z" />
    <glyph glyph-name="Yacute" unicode="&#xdd;" 
d="M175 1000h-175v400h200v-375l25 -25h175v-175l25 -25h150l25 25v175h175l25 25v375h200v-400h-175l-25 -25v-175h-175l-25 -25v-775h-200v775l-25 25h-175v175zM400 1825v175h400v-200h-375l-25 -25v-175h-200v200h175z" />
    <glyph glyph-name="Thorn" unicode="&#xde;" 
d="M200 1200h600v-175l25 -25h175v-600h-175l-25 -25v-175h-600v-200h-200v1400h200v-200zM200 400h575l25 25v550l-25 25h-575v-600z" />
    <glyph glyph-name="germandbls" unicode="&#xdf;" 
d="M400 600v200h375l25 25v350l-25 25h-550l-25 -25v-1175h-200v1200h175l25 25v175h600v-175l25 -25h175v-400h-175l-25 -25v-150l25 -25h175v-400h-175l-25 -25v-175h-400v200h375l25 25v350l-25 25h-375z" />
    <glyph glyph-name="agrave" unicode="&#xe0;" 
d="M625 1800h175v-200h-200v175l-25 25h-375v200h400v-175zM825 800h175v-800h-200v400h-600v-400h-200v800h175l25 25v175h175l25 25v175h200v-175l25 -25h175v-175zM200 775v-175h600v175l-25 25h-175v175l-25 25h-150l-25 -25v-175h-175z" />
    <glyph glyph-name="aacute" unicode="&#xe1;" 
d="M400 1825v175h400v-200h-375l-25 -25v-175h-200v200h175zM825 800h175v-800h-200v400h-600v-400h-200v800h175l25 25v175h175l25 25v175h200v-175l25 -25h175v-175zM200 775v-175h600v175l-25 25h-175v175l-25 25h-150l-25 -25v-175h-175z" />
    <glyph glyph-name="acircumflex" unicode="&#xe2;" 
d="M400 1825v175h200v-175l25 -25h175v-200h-200v175l-25 25h-150l-25 -25v-175h-200v200h175zM825 800h175v-800h-200v400h-600v-400h-200v800h175l25 25v175h175l25 25v175h200v-175l25 -25h175v-175zM200 775v-175h600v175l-25 25h-175v175l-25 25h-150l-25 -25v-175
h-175z" />
    <glyph glyph-name="atilde" unicode="&#xe3;" 
d="M575 1800l25 25v175h200v-200h-175l-25 -25v-175h-200v175l-25 25h-150l-25 -25v-175h-200v200h175l25 25v175h200v-175l25 -25h150zM825 800h175v-800h-200v400h-600v-400h-200v800h175l25 25v175h175l25 25v175h200v-175l25 -25h175v-175zM200 775v-175h600v175l-25 25
h-175v175l-25 25h-150l-25 -25v-175h-175z" />
    <glyph glyph-name="adieresis" unicode="&#xe4;" 
d="M800 1600h-200v200h200v-200zM400 1600h-200v200h200v-200zM825 800h175v-800h-200v400h-600v-400h-200v800h175l25 25v175h175l25 25v175h200v-175l25 -25h175v-175zM200 775v-175h600v175l-25 25h-175v175l-25 25h-150l-25 -25v-175h-175z" />
    <glyph glyph-name="aring" unicode="&#xe5;" 
d="M600 1600h-200v200h200v-200zM825 800h175v-800h-200v400h-600v-400h-200v800h175l25 25v175h175l25 25v175h200v-175l25 -25h175v-175zM200 775v-175h600v175l-25 25h-175v175l-25 25h-150l-25 -25v-175h-175z" />
    <glyph glyph-name="ae" unicode="&#xe6;" horiz-adv-x="2000" 
d="M200 775v-175h600v200h-200v175l-25 25h-150l-25 -25v-175h-175zM800 400h-600v-400h-200v800h175l25 25v175h175l25 25v175h200v-175l25 -25h175v200h1000v-200h-800v-200h600v-200h-600v-400h800v-200h-1000v400z" />
    <glyph glyph-name="ccedilla" unicode="&#xe7;" 
d="M200 175l-25 25h-175v800h175l25 25v175h600v-175l25 -25h175v-200h-200v175l-25 25h-550l-25 -25v-750l25 -25h550l25 25v175h200v-200h-175l-25 -25v-175h-200v-200h-400v375z" />
    <glyph glyph-name="egrave" unicode="&#xe8;" 
d="M625 1800h175v-200h-200v175l-25 25h-375v200h400v-175zM200 1000v-200h600v-200h-600v-400h800v-200h-1000v1200h1000v-200h-800z" />
    <glyph glyph-name="eacute" unicode="&#xe9;" 
d="M400 1825v175h400v-200h-375l-25 -25v-175h-200v200h175zM200 1000v-200h600v-200h-600v-400h800v-200h-1000v1200h1000v-200h-800z" />
    <glyph glyph-name="ecircumflex" unicode="&#xea;" 
d="M400 1825v175h200v-175l25 -25h175v-200h-200v175l-25 25h-150l-25 -25v-175h-200v200h175zM200 1000v-200h600v-200h-600v-400h800v-200h-1000v1200h1000v-200h-800z" />
    <glyph glyph-name="edieresis" unicode="&#xeb;" 
d="M800 1600h-200v200h200v-200zM400 1600h-200v200h200v-200zM200 1000v-200h600v-200h-600v-400h800v-200h-1000v1200h1000v-200h-800z" />
    <glyph glyph-name="igrave" unicode="&#xec;" 
d="M625 1800h175v-200h-200v175l-25 25h-375v200h400v-175zM800 1200v-200h-200v-800h200v-200h-600v200h200v800h-200v200h600z" />
    <glyph glyph-name="iacute" unicode="&#xed;" 
d="M400 1825v175h400v-200h-375l-25 -25v-175h-200v200h175zM800 1200v-200h-200v-800h200v-200h-600v200h200v800h-200v200h600z" />
    <glyph glyph-name="icircumflex" unicode="&#xee;" 
d="M400 1825v175h200v-175l25 -25h175v-200h-200v175l-25 25h-150l-25 -25v-175h-200v200h175zM800 1200v-200h-200v-800h200v-200h-600v200h200v800h-200v200h600z" />
    <glyph glyph-name="idieresis" unicode="&#xef;" 
d="M800 1600h-200v200h200v-200zM400 1600h-200v200h200v-200zM800 1200v-200h-200v-800h200v-200h-600v200h200v800h-200v200h600z" />
    <glyph glyph-name="eth" unicode="&#xf0;" 
d="M400 600v-400h375l25 25v750l-25 25h-375v-200h200v-200h-200zM200 800v400h600v-175l25 -25h175v-800h-175l-25 -25v-175h-600v600h-200v200h200z" />
    <glyph glyph-name="ntilde" unicode="&#xf1;" 
d="M575 1800l25 25v175h200v-200h-175l-25 -25v-175h-200v175l-25 25h-150l-25 -25v-175h-200v200h175l25 25v175h200v-175l25 -25h150zM625 600h175v600h200v-1200h-200v400h-200v175l-25 25h-175v175l-25 25h-175v-800h-200v1200h200v-200h200v-175l25 -25h175v-175z" />
    <glyph glyph-name="ograve" unicode="&#xf2;" 
d="M625 1800h175v-200h-200v175l-25 25h-375v200h400v-175zM800 175v-175h-600v175l-25 25h-175v800h175l25 25v175h600v-175l25 -25h175v-800h-175zM225 200h550l25 25v750l-25 25h-550l-25 -25v-750z" />
    <glyph glyph-name="oacute" unicode="&#xf3;" 
d="M400 1825v175h400v-200h-375l-25 -25v-175h-200v200h175zM800 175v-175h-600v175l-25 25h-175v800h175l25 25v175h600v-175l25 -25h175v-800h-175zM225 200h550l25 25v750l-25 25h-550l-25 -25v-750z" />
    <glyph glyph-name="ocircumflex" unicode="&#xf4;" 
d="M400 1825v175h200v-175l25 -25h175v-200h-200v175l-25 25h-150l-25 -25v-175h-200v200h175zM800 175v-175h-600v175l-25 25h-175v800h175l25 25v175h600v-175l25 -25h175v-800h-175zM225 200h550l25 25v750l-25 25h-550l-25 -25v-750z" />
    <glyph glyph-name="otilde" unicode="&#xf5;" 
d="M575 1800l25 25v175h200v-200h-175l-25 -25v-175h-200v175l-25 25h-150l-25 -25v-175h-200v200h175l25 25v175h200v-175l25 -25h150zM800 175v-175h-600v175l-25 25h-175v800h175l25 25v175h600v-175l25 -25h175v-800h-175zM225 200h550l25 25v750l-25 25h-550l-25 -25
v-750z" />
    <glyph glyph-name="odieresis" unicode="&#xf6;" 
d="M800 1600h-200v200h200v-200zM400 1600h-200v200h200v-200zM800 175v-175h-600v175l-25 25h-175v800h175l25 25v175h600v-175l25 -25h175v-800h-175zM225 200h550l25 25v750l-25 25h-550l-25 -25v-750z" />
    <glyph glyph-name="divide" unicode="&#xf7;" 
d="M1000 800v-200h-1000v200h1000zM400 1200h200v-200h-200v200zM400 400h200v-200h-200v200z" />
    <glyph glyph-name="oslash" unicode="&#xf8;" 
d="M600 1000h-375l-25 -25v-375h175l25 25v175h175l25 25v175zM625 800l-25 -25v-175h-175l-25 -25v-175h-200v-175l25 -25h550l25 25v575h-175zM800 175v-175h-600v175l-25 25h-175v800h175l25 25v175h600v-200h200v-800h-175z" />
    <glyph glyph-name="ugrave" unicode="&#xf9;" 
d="M625 1800h175v-200h-200v175l-25 25h-375v200h400v-175zM800 225v975h200v-1000h-175l-25 -25v-175h-600v175l-25 25h-175v1000h200v-975l25 -25h550z" />
    <glyph glyph-name="uacute" unicode="&#xfa;" 
d="M400 1825v175h400v-200h-375l-25 -25v-175h-200v200h175zM800 225v975h200v-1000h-175l-25 -25v-175h-600v175l-25 25h-175v1000h200v-975l25 -25h550z" />
    <glyph glyph-name="ucircumflex" unicode="&#xfb;" 
d="M400 1825v175h200v-175l25 -25h175v-200h-200v175l-25 25h-150l-25 -25v-175h-200v200h175zM800 225v975h200v-1000h-175l-25 -25v-175h-600v175l-25 25h-175v1000h200v-975l25 -25h550z" />
    <glyph glyph-name="udieresis" unicode="&#xfc;" 
d="M800 1600h-200v200h200v-200zM400 1600h-200v200h200v-200zM800 225v975h200v-1000h-175l-25 -25v-175h-600v175l-25 25h-175v1000h200v-975l25 -25h550z" />
    <glyph glyph-name="yacute" unicode="&#xfd;" 
d="M400 1825v175h400v-200h-375l-25 -25v-175h-200v200h175zM175 800h-175v400h200v-375l25 -25h175v-175l25 -25h150l25 25v175h175l25 25v375h200v-400h-175l-25 -25v-175h-175l-25 -25v-575h-200v575l-25 25h-175v175z" />
    <glyph glyph-name="thorn" unicode="&#xfe;" 
d="M200 1000h600v-175l25 -25h175v-400h-175l-25 -25v-175h-600v-200h-200v1200h200v-200zM200 400h575l25 25v350l-25 25h-575v-400z" />
    <glyph glyph-name="ydieresis" unicode="&#xff;" 
d="M800 1600h-200v200h200v-200zM400 1600h-200v200h200v-200zM175 800h-175v400h200v-375l25 -25h175v-175l25 -25h150l25 25v175h175l25 25v375h200v-400h-175l-25 -25v-175h-175l-25 -25v-575h-200v575l-25 25h-175v175z" />
    <glyph glyph-name="dotlessi" unicode="&#x131;" 
d="M800 1200v-200h-200v-800h200v-200h-600v200h200v800h-200v200h600z" />
    <glyph glyph-name="OE" unicode="&#x152;" horiz-adv-x="2000" 
d="M225 200h575v1000h-575l-25 -25v-950zM200 0v175l-25 25h-175v1000h175l25 25v175h1600v-200h-800v-400h600v-200h-600v-400h800v-200h-1600z" />
    <glyph glyph-name="oe" unicode="&#x153;" horiz-adv-x="2000" 
d="M225 200h575v800h-575l-25 -25v-750zM200 0v175l-25 25h-175v800h175l25 25v175h1600v-200h-800v-200h600v-200h-600v-400h800v-200h-1600z" />
    <glyph glyph-name="circumflex" unicode="&#x2c6;" 
d="M400 1825v175h200v-175l25 -25h175v-200h-200v175l-25 25h-150l-25 -25v-175h-200v200h175z" />
    <glyph glyph-name="caron" unicode="&#x2c7;" 
d="M375 1800h-175v200h200v-175l25 -25h150l25 25v175h200v-200h-175l-25 -25v-175h-200v175z" />
    <glyph glyph-name="uni02C9" unicode="&#x2c9;" horiz-adv-x="1024" 
d="M254 1195v125h516v-125h-516z" />
    <glyph glyph-name="breve" unicode="&#x2d8;" horiz-adv-x="1024" 
d="M219 1349l50.998 0.00292969c11.333 -48.667 36.333 -84.334 75 -107.001s94.334 -34 167.001 -34s128 11.167 166 33.5s62.667 58.166 74 107.499h51c-13.333 -88.667 -44.666 -155.834 -93.999 -201.501s-115 -68.5 -197 -68.5c-81.333 0 -147 23 -197 69
s-82 113 -96 201z" />
    <glyph glyph-name="dotaccent" unicode="&#x2d9;" 
d="M600 1600h-200v200h200v-200z" />
    <glyph glyph-name="ring" unicode="&#x2da;" 
d="M600 1600h-200v200h200v-200z" />
    <glyph glyph-name="ogonek" unicode="&#x2db;" 
d="M600 -200h-400v400h200v-200h200v-200z" />
    <glyph glyph-name="tilde" unicode="&#x2dc;" 
d="M575 1800l25 25v175h200v-200h-175l-25 -25v-175h-200v175l-25 25h-150l-25 -25v-175h-200v200h175l25 25v175h200v-175l25 -25h150z" />
    <glyph glyph-name="hungarumlaut" unicode="&#x2dd;" 
d="M800 1600h-200v400h200v-400zM400 1600h-200v400h200v-400z" />
    <glyph glyph-name="endash" unicode="&#x2013;" horiz-adv-x="1108" 
d="M56 419v120h996v-120h-996z" />
    <glyph glyph-name="emdash" unicode="&#x2014;" horiz-adv-x="2048" 
d="M0 419v120h2048v-120h-2048z" />
    <glyph glyph-name="quoteleft" unicode="&#x2018;" 
d="M400 800v600h200v-600h-200z" />
    <glyph glyph-name="quoteright" unicode="&#x2019;" 
d="M400 800v600h200v-600h-200z" />
    <glyph glyph-name="quotesinglbase" unicode="&#x201a;" 
d="M400 -200v600h200v-600h-200z" />
    <glyph glyph-name="quotedblleft" unicode="&#x201c;" 
d="M600 800v600h200v-600h-200zM200 800v600h200v-600h-200z" />
    <glyph glyph-name="quotedblright" unicode="&#x201d;" 
d="M600 800v600h200v-600h-200zM200 800v600h200v-600h-200z" />
    <glyph glyph-name="quotedblbase" unicode="&#x201e;" 
d="M600 -200v600h200v-600h-200zM200 -200v600h200v-600h-200z" />
    <glyph glyph-name="dagger" unicode="&#x2020;" horiz-adv-x="1014" 
d="M486 1022c-5.33301 64.667 -23.332 123.999 -53.999 177.999c-38 67.333 -57 110.333 -57 129c0 32.667 12 58.834 36 78.501s56 29.5 96 29.5c38 0 69.5 -9.16699 94.5 -27.5s37.5 -42.166 37.5 -71.499c0 -21.333 -18.333 -67 -55 -137
c-30.667 -56.667 -49 -116.334 -55 -179.001c64 5.33301 123 23.333 177 54c67.333 38 110.333 57 129 57c32.667 0 59 -12 79 -36s30 -56 30 -96c0 -38 -9.16699 -69.5 -27.5 -94.5s-42.5 -37.5 -72.5 -37.5c-21.333 0 -66.666 18.333 -135.999 55
c-56.667 30.667 -116.334 49.667 -179.001 57c5.33301 -117.333 42 -209.666 110 -276.999c-70.667 -306.667 -108 -631.334 -112 -974.001h-38c-4 342.667 -42 667.334 -114 974.001c68 67.333 105 159.666 111 276.999c-64 -6.66699 -123.333 -25 -178 -55
c-67.333 -38 -110.333 -57 -129 -57c-32.667 0 -58.834 12 -78.501 36s-29.5 56 -29.5 96c0 38 9.16699 69.5 27.5 94.5s42.166 37.5 71.499 37.5c21.333 0 67 -18.667 137 -56c56.667 -30.667 116.334 -49 179.001 -55z" />
    <glyph glyph-name="daggerdbl" unicode="&#x2021;" horiz-adv-x="1014" 
d="M528 186c62.667 7.33301 122.334 26.3311 179.001 56.998c69.333 36.667 114.666 55 135.999 55c30 0 54.167 -12.5 72.5 -37.5s27.5 -56.5 27.5 -94.5c0 -40 -10 -72 -30 -96s-46.333 -36 -79 -36c-18.667 0 -61.667 19 -129 57c-54 30.667 -113 48.667 -177 54
c6 -62.667 24.333 -122.334 55 -179.001c36.667 -70 55 -115.667 55 -137c0 -29.333 -12.5 -53.166 -37.5 -71.499s-56.5 -27.5 -94.5 -27.5c-40 0 -72 9.83301 -96 29.5s-36 45.834 -36 78.501c0 18.667 19 61.667 57 129c30.667 54 48.667 113.333 54 178
c-62.667 -6 -122.334 -24.333 -179.001 -55c-70 -37.333 -115.667 -56 -137 -56c-29.333 0 -53.166 12.5 -71.499 37.5s-27.5 56.5 -27.5 94.5c0 40 9.83301 72 29.5 96s45.834 36 78.501 36c18.667 0 61.667 -19 129 -57c54.667 -30 114 -48.333 178 -55
c-6 150.667 -43 283.334 -111 398.001c68 114 105 246.333 111 397c-64 -6.66699 -123.333 -25 -178 -55c-67.333 -38 -110.333 -57 -129 -57c-32.667 0 -58.834 12 -78.501 36s-29.5 56 -29.5 96c0 38 9.16699 69.5 27.5 94.5s42.166 37.5 71.499 37.5
c21.333 0 67 -18.667 137 -56c56.667 -30.667 116.334 -49 179.001 -55c-5.33301 64.667 -23.333 124 -54 178c-38 67.333 -57 110.333 -57 129c0 32.667 12 58.834 36 78.501s56 29.5 96 29.5c38 0 69.5 -9.16699 94.5 -27.5s37.5 -42.166 37.5 -71.499
c0 -21.333 -18.333 -67 -55 -137c-30.667 -56.667 -49 -116.334 -55 -179.001c64 5.33301 123 23.333 177 54c67.333 38 110.333 57 129 57c32.667 0 59 -12 79 -36s30 -56 30 -96c0 -38 -9.16699 -69.5 -27.5 -94.5s-42.5 -37.5 -72.5 -37.5
c-21.333 0 -66.666 18.333 -135.999 55c-56.667 30.667 -116.334 49.667 -179.001 57c5.33301 -150.667 42 -283 110 -397c-68 -114.667 -104.667 -247.334 -110 -398.001z" />
    <glyph glyph-name="bullet" unicode="&#x2022;" 
d="M800 1000v-400h-400v400h400z" />
    <glyph glyph-name="ellipsis" unicode="&#x2026;" 
d="M600 200v-200h-200v200h200zM200 200v-200h-200v200h200zM1000 200v-200h-200v200h200z" />
    <glyph glyph-name="perthousand" unicode="&#x2030;" horiz-adv-x="1700" 
d="M0 1000v400h400v-400h-400zM1000 0h-400v400h400v-400zM600 825v175h175l25 25v375h200v-400h-175l-25 -25v-175h-175l-25 -25v-175h-175l-25 -25v-175h-175l-25 -25v-375h-200v400h175l25 25v175h175l25 25v175h175zM1500 0h-400v400h400v-400z" />
    <glyph glyph-name="guilsinglleft" unicode="&#x2039;" 
d="M800 1175v-175h-175l-25 -25v-175h-175l-25 -25v-150l25 -25h175v-175l25 -25h175v-175l25 -25h175v-200h-200v175l-25 25h-175v175l-25 25h-175v175l-25 25h-175v200h175l25 25v175h175l25 25v175h175l25 25v175h200v-200h-175z" />
    <glyph glyph-name="guilsinglright" unicode="&#x203a;" 
d="M375 1200h-175v200h200v-175l25 -25h175v-175l25 -25h175v-175l25 -25h175v-200h-175l-25 -25v-175h-175l-25 -25v-175h-175l-25 -25v-175h-200v200h175l25 25v175h175l25 25v175h175l25 25v150l-25 25h-175v175l-25 25h-175v175z" />
    <glyph glyph-name="fraction" unicode="&#x2044;" 
d="M600 825v175h175l25 25v375h200v-400h-175l-25 -25v-175h-175l-25 -25v-175h-175l-25 -25v-175h-175l-25 -25v-375h-200v400h175l25 25v175h175l25 25v175h175z" />
    <glyph glyph-name="fraction" unicode="&#x2215;" 
d="M600 825v175h175l25 25v375h200v-400h-175l-25 -25v-175h-175l-25 -25v-175h-175l-25 -25v-175h-175l-25 -25v-375h-200v400h175l25 25v175h175l25 25v175h175z" />
    <glyph glyph-name="franc" unicode="&#x20a3;" 
d="M200 400v1000h800v-200h-600v-400h400v-200h-400v-200h200v-200h-200v-200h-200v200h-200v200h200z" />
    <glyph glyph-name="lira" unicode="&#x20a4;" 
d="M400 600v-375l25 -25h625v-200h-1050v200h200v400h-200v200h200v400h175l25 25v175h400v-175l25 -25h175v-200h-200v175l-25 25h-350l-25 -25v-375h200v-200h-200z" />
    <glyph glyph-name="peseta" unicode="&#x20a7;" 
d="M775 1200h-375v-400h375l25 25v350zM200 400v1000h600v-175l25 -25h175v-400h-175l-25 -25v-175h-400v-200h200v-200h-200v-200h-200v200h-200v200h200z" />
    <glyph glyph-name="Euro" unicode="&#x20ac;" 
d="M825 1200h175v-200h-200v175l-25 25h-350l-25 -25v-175h200v-200h-200v-200h200v-200h-200v-175l25 -25h350l25 25v175h200v-200h-175l-25 -25v-175h-400v175l-25 25h-175v200h-200v200h200v200h-200v200h200v200h175l25 25v175h400v-175z" />
    <glyph glyph-name="uni2116" unicode="&#x2116;" horiz-adv-x="2400" 
d="M2000 1400v-175l25 -25h175v-400h-175l-25 -25v-175h-600v175l-25 25h-175v400h175l25 25v175h600zM375 1200h-175v-600h-200v800h400v-175l25 -25h175v-175l25 -25h175v400h200v-800h-200v200h-200v175l-25 25h-175v175zM2000 1175l-24 25h-551l-25 -24v-351l25 -25h550
l25 26v349z" />
    <glyph glyph-name="trademark" unicode="&#x2122;" horiz-adv-x="2400" 
d="M1000 1400v-200h-400v-600h-200v600h-400v200h1000zM1575 1000h-175v-400h-200v800h200v-200h200v-175l25 -25h150l25 25v175h200v200h200v-800h-200v400h-175l-25 -25v-375h-200v375z" />
    <glyph glyph-name="partialdiff" unicode="&#x2202;" horiz-adv-x="1650" 
d="M0 200v1100c0 133.333 66.667 200 200 200h1100c133.333 0 200 -66.667 200 -200v-1100c0 -133.333 -66.667 -200 -200 -200h-1100c-133.333 0 -200 66.667 -200 200zM1475 201v1099c0 116.667 -58.333 175 -175 175h-1100c-116 0 -174.333 -58.333 -175 -175v-1100
c0.666992 -116.667 59 -175 175 -175h1101c116 0 174 58.667 174 176z" />
    <glyph glyph-name="Delta" unicode="&#x2206;" horiz-adv-x="1650" 
d="M0 200v1100c0 133.333 66.667 200 200 200h1100c133.333 0 200 -66.667 200 -200v-1100c0 -133.333 -66.667 -200 -200 -200h-1100c-133.333 0 -200 66.667 -200 200zM1475 201v1099c0 116.667 -58.333 175 -175 175h-1100c-116 0 -174.333 -58.333 -175 -175v-1100
c0.666992 -116.667 59 -175 175 -175h1101c116 0 174 58.667 174 176z" />
    <glyph glyph-name="product" unicode="&#x220f;" horiz-adv-x="1650" 
d="M0 200v1100c0 133.333 66.667 200 200 200h1100c133.333 0 200 -66.667 200 -200v-1100c0 -133.333 -66.667 -200 -200 -200h-1100c-133.333 0 -200 66.667 -200 200zM1475 201v1099c0 116.667 -58.333 175 -175 175h-1100c-116 0 -174.333 -58.333 -175 -175v-1100
c0.666992 -116.667 59 -175 175 -175h1101c116 0 174 58.667 174 176z" />
    <glyph glyph-name="summation" unicode="&#x2211;" horiz-adv-x="1650" 
d="M0 200v1100c0 133.333 66.667 200 200 200h1100c133.333 0 200 -66.667 200 -200v-1100c0 -133.333 -66.667 -200 -200 -200h-1100c-133.333 0 -200 66.667 -200 200zM1475 201v1099c0 116.667 -58.333 175 -175 175h-1100c-116 0 -174.333 -58.333 -175 -175v-1100
c0.666992 -116.667 59 -175 175 -175h1101c116 0 174 58.667 174 176z" />
    <glyph glyph-name="minus" unicode="&#x2212;" horiz-adv-x="1014" 
d="M87 647v140h839l1 -1v-139h-840z" />
    <glyph glyph-name="radical" unicode="&#x221a;" horiz-adv-x="1650" 
d="M0 200v1100c0 133.333 66.667 200 200 200h1100c133.333 0 200 -66.667 200 -200v-1100c0 -133.333 -66.667 -200 -200 -200h-1100c-133.333 0 -200 66.667 -200 200zM1475 201v1099c0 116.667 -58.333 175 -175 175h-1100c-116 0 -174.333 -58.333 -175 -175v-1100
c0.666992 -116.667 59 -175 175 -175h1101c116 0 174 58.667 174 176z" />
    <glyph glyph-name="infinity" unicode="&#x221e;" horiz-adv-x="1650" 
d="M0 200v1100c0 133.333 66.667 200 200 200h1100c133.333 0 200 -66.667 200 -200v-1100c0 -133.333 -66.667 -200 -200 -200h-1100c-133.333 0 -200 66.667 -200 200zM1475 201v1099c0 116.667 -58.333 175 -175 175h-1100c-116 0 -174.333 -58.333 -175 -175v-1100
c0.666992 -116.667 59 -175 175 -175h1101c116 0 174 58.667 174 176z" />
    <glyph glyph-name="integral" unicode="&#x222b;" horiz-adv-x="1650" 
d="M0 200v1100c0 133.333 66.667 200 200 200h1100c133.333 0 200 -66.667 200 -200v-1100c0 -133.333 -66.667 -200 -200 -200h-1100c-133.333 0 -200 66.667 -200 200zM1475 201v1099c0 116.667 -58.333 175 -175 175h-1100c-116 0 -174.333 -58.333 -175 -175v-1100
c0.666992 -116.667 59 -175 175 -175h1101c116 0 174 58.667 174 176z" />
    <glyph glyph-name="approxequal" unicode="&#x2248;" horiz-adv-x="1650" 
d="M0 200v1100c0 133.333 66.667 200 200 200h1100c133.333 0 200 -66.667 200 -200v-1100c0 -133.333 -66.667 -200 -200 -200h-1100c-133.333 0 -200 66.667 -200 200zM1475 201v1099c0 116.667 -58.333 175 -175 175h-1100c-116 0 -174.333 -58.333 -175 -175v-1100
c0.666992 -116.667 59 -175 175 -175h1101c116 0 174 58.667 174 176z" />
    <glyph glyph-name="lessequal" unicode="&#x2264;" horiz-adv-x="1650" 
d="M0 200v1100c0 133.333 66.667 200 200 200h1100c133.333 0 200 -66.667 200 -200v-1100c0 -133.333 -66.667 -200 -200 -200h-1100c-133.333 0 -200 66.667 -200 200zM1475 201v1099c0 116.667 -58.333 175 -175 175h-1100c-116 0 -174.333 -58.333 -175 -175v-1100
c0.666992 -116.667 59 -175 175 -175h1101c116 0 174 58.667 174 176z" />
    <glyph glyph-name="greaterequal" unicode="&#x2265;" horiz-adv-x="1650" 
d="M0 200v1100c0 133.333 66.667 200 200 200h1100c133.333 0 200 -66.667 200 -200v-1100c0 -133.333 -66.667 -200 -200 -200h-1100c-133.333 0 -200 66.667 -200 200zM1475 201v1099c0 116.667 -58.333 175 -175 175h-1100c-116 0 -174.333 -58.333 -175 -175v-1100
c0.666992 -116.667 59 -175 175 -175h1101c116 0 174 58.667 174 176z" />
    <glyph glyph-name="uniF001" unicode="&#xf001;" horiz-adv-x="1073" 
 />
    <glyph glyph-name="uniF001" unicode="&#xfb01;" horiz-adv-x="1073" 
 />
    <glyph glyph-name="uniF002" unicode="&#xf002;" horiz-adv-x="1081" 
 />
    <glyph glyph-name="uniF002" unicode="&#xfb02;" horiz-adv-x="1081" 
 />
    <glyph glyph-name="nonmarkingreturn" horiz-adv-x="508" 
 />
  </font>
</defs>
</svg>
